<?xml version="1.0" encoding="UTF-8" standalone="no"?>
<svg xmlns="http://www.w3.org/2000/svg" width="400" height="400" version="1.0">
  <g style="line-height:0%;text-align:start" transform="translate(-256.6798 -531.7963)">
    <path fill="#ffffff" d="M451.94208 655.99268q8.98437 0 15.23437 6.44531 6.44532 6.25 6.44532 15.23437 0 8.98438-6.44532 15.42969-6.25 6.25-15.23437 6.25-8.98438 0-15.42969-6.25-6.25-6.44531-6.25-15.42969 0-8.98437 6.25-15.23437 6.44531-6.44531 15.42969-6.44531zm-.39063 146.28906q9.17969 0 15.42969 6.44531 6.44531 6.44531 6.44531 15.42969 0 8.98437-6.44531 15.42969-6.44531 6.25-15.42969 6.25-8.98437 0-15.42968-6.25-6.25-6.44532-6.25-15.42969 0-8.98438 6.25-15.42969 6.44531-6.44531 15.42968-6.44531z" aria-label=":" font-family="Times New Roman" font-size="400" font-weight="400" style="line-height:1.25;text-align:center" text-anchor="middle"/>
  </g>
</svg>